<svg width="72" height="72" viewBox="0 0 72 72" fill="none" xmlns="http://www.w3.org/2000/svg">
<path d="M55.671 27.1385C52.8349 26.132 19.6131 14.3721 17.9518 13.7921C15.8795 13.0676 14.2382 14.785 14.5789 16.6185C14.8421 18.0321 21.4692 54.0223 21.9131 56.0597C22.204 57.3958 22.7176 57.9191 23.486 58.001C23.546 58.0004 23.604 57.9984 23.666 57.9984C27.6879 57.9984 35.0111 30.7707 39.2433 30.7707C42.1698 30.7707 44.6788 38.4049 45.7659 40.9449C51.2111 36.123 55.8104 31.9817 56.4652 31.4107C57.9375 30.1282 57.5336 27.7998 55.671 27.1385Z" fill="#0089CC"/>
<path d="M39.341 33.3044C38.0049 33.3044 32.1726 50.0489 28.3462 56.345C31.5494 53.4334 38.1075 47.7057 43.9094 42.5857C43.3049 40.0386 40.6384 33.3044 39.341 33.3044Z" fill="#444444"/>
</svg>
